<svg xmlns="http://www.w3.org/2000/svg" viewBox="0 0 256 256" role="img" aria-labelledby="title desc">
  <title id="title">CyberPanel Vault Icon</title>
  <desc id="desc">Shield icon with a vault mark</desc>
  <defs>
    <linearGradient id="g" x1="0%" y1="0%" x2="100%" y2="100%">
      <stop offset="0%" stop-color="#d9653b"/>
      <stop offset="100%" stop-color="#143642"/>
    </linearGradient>
  </defs>
  <rect x="20" y="20" width="216" height="216" rx="56" fill="url(#g)"/>
  <path d="M128 52c22 20 48 28 70 31v46c0 42-25 73-70 95-45-22-70-53-70-95V83c22-3 48-11 70-31Z" fill="#fff" fill-opacity=".12"/>
  <path d="M128 70c18 15 40 22 58 25v34c0 34-20 59-58 79-38-20-58-45-58-79V95c18-3 40-10 58-25Z" fill="#fbf8f1"/>
  <circle cx="128" cy="132" r="28" fill="#143642"/>
  <circle cx="128" cy="132" r="10" fill="#ebb94d"/>
  <path d="M128 143v28" stroke="#143642" stroke-width="14" stroke-linecap="round"/>
</svg>
